<svg xmlns="http://www.w3.org/2000/svg" viewBox="0 0 512 512">
  <rect width="512" height="512" rx="96" fill="#0f766e"/>
  <path d="M256 108c-46 0-84 38-84 84v32h-32c-46 0-84 38-84 84s38 84 84 84h32v32c0 46 38 84 84 84s84-38 84-84v-32h32c46 0 84-38 84-84s-38-84-84-84h-32v-32c0-46-38-84-84-84Z" fill="#f8fafc"/>
  <path d="M256 152c22 0 40 18 40 40v76h76c22 0 40 18 40 40s-18 40-40 40h-76v76c0 22-18 40-40 40s-40-18-40-40v-76h-76c-22 0-40-18-40-40s18-40 40-40h76v-76c0-22 18-40 40-40Z" fill="#14b8a6"/>
</svg>
